<svg transform="current" width="20" height="20" viewBox="0 0 20 20" fill="none" xmlns="http://www.w3.org/2000/svg">
<path d="M6.87141 10.362L12.4444 15.672C12.5374 15.7606 12.6609 15.8101 12.7894 15.8101C12.9179 15.8101 13.0414 15.7606 13.1344 15.672L13.1404 15.666C13.1856 15.623 13.2217 15.5713 13.2463 15.5139C13.2709 15.4566 13.2836 15.3949 13.2836 15.3325C13.2836 15.2701 13.2709 15.2083 13.2463 15.151C13.2217 15.0937 13.1856 15.0419 13.1404 14.999L7.89241 9.99896L13.1404 5.00096C13.1856 4.95799 13.2217 4.90626 13.2463 4.84893C13.2709 4.7916 13.2836 4.72986 13.2836 4.66746C13.2836 4.60507 13.2709 4.54333 13.2463 4.486C13.2217 4.42866 13.1856 4.37694 13.1404 4.33396L13.1344 4.32796C13.0414 4.23932 12.9179 4.18987 12.7894 4.18987C12.6609 4.18987 12.5374 4.23932 12.4444 4.32796L6.87141 9.63796C6.8224 9.68466 6.78338 9.74082 6.75672 9.80305C6.73006 9.86528 6.71631 9.93227 6.71631 9.99996C6.71631 10.0677 6.73006 10.1347 6.75672 10.1969C6.78338 10.2591 6.8224 10.3153 6.87141 10.362Z" fill="#A2A2A2"/>
</svg>
