<svg transform="current" width="20" height="20" viewBox="0 0 20 20" fill="none" xmlns="http://www.w3.org/2000/svg">
<path d="M3.58772 10.362L9.16072 15.672C9.25371 15.7607 9.37725 15.8101 9.50572 15.8101C9.63419 15.8101 9.75773 15.7607 9.85072 15.672L9.85672 15.666C9.90195 15.6231 9.93797 15.5713 9.96259 15.514C9.9872 15.4567 9.99989 15.3949 9.99989 15.3325C9.99989 15.2701 9.9872 15.2084 9.96259 15.1511C9.93797 15.0937 9.90195 15.042 9.85672 14.999L4.60872 9.99904L9.85672 5.00104C9.90195 4.95806 9.93797 4.90634 9.96259 4.849C9.9872 4.79167 9.99989 4.72993 9.99989 4.66754C9.99989 4.60514 9.9872 4.5434 9.96259 4.48607C9.93797 4.42874 9.90195 4.37701 9.85672 4.33404L9.85072 4.32804C9.75773 4.23939 9.63419 4.18994 9.50572 4.18994C9.37725 4.18994 9.25371 4.23939 9.16072 4.32804L3.58772 9.63804C3.53871 9.68473 3.49969 9.7409 3.47303 9.80312C3.44636 9.86535 3.43262 9.93234 3.43262 10C3.43262 10.0677 3.44636 10.1347 3.47303 10.197C3.49969 10.2592 3.53871 10.3153 3.58772 10.362Z" fill="#A2A2A2"/>
<path d="M10.1551 10.362L15.7281 15.672C15.8211 15.7607 15.9446 15.8101 16.0731 15.8101C16.2016 15.8101 16.3251 15.7607 16.4181 15.672L16.4241 15.666C16.4693 15.6231 16.5054 15.5713 16.53 15.514C16.5546 15.4567 16.5673 15.3949 16.5673 15.3325C16.5673 15.2701 16.5546 15.2084 16.53 15.1511C16.5054 15.0937 16.4693 15.042 16.4241 14.999L11.1761 9.99904L16.4241 5.00104C16.4693 4.95806 16.5054 4.90634 16.53 4.849C16.5546 4.79167 16.5673 4.72993 16.5673 4.66754C16.5673 4.60514 16.5546 4.5434 16.53 4.48607C16.5054 4.42874 16.4693 4.37701 16.4241 4.33404L16.4181 4.32804C16.3251 4.23939 16.2016 4.18994 16.0731 4.18994C15.9446 4.18994 15.8211 4.23939 15.7281 4.32804L10.1551 9.63804C10.1061 9.68473 10.0671 9.7409 10.0404 9.80312C10.0137 9.86535 10 9.93234 10 10C10 10.0677 10.0137 10.1347 10.0404 10.197C10.0671 10.2592 10.1061 10.3153 10.1551 10.362Z" fill="#A2A2A2"/>
</svg>
