<svg width="24" height="25" viewBox="0 0 24 25" fill="none" xmlns="http://www.w3.org/2000/svg">
<path d="M13 21.5C12.7167 21.5 12.4793 21.404 12.288 21.212C12.0967 21.02 12.0007 20.7827 12 20.5C11.9993 20.2173 12.0953 19.98 12.288 19.788C12.4807 19.596 12.718 19.5 13 19.5H19V5.5H13C12.7167 5.5 12.4793 5.404 12.288 5.212C12.0967 5.02 12.0007 4.78267 12 4.5C11.9993 4.21733 12.0953 3.98 12.288 3.788C12.4807 3.596 12.718 3.5 13 3.5H19C19.55 3.5 20.021 3.696 20.413 4.088C20.805 4.48 21.0007 4.95067 21 5.5V19.5C21 20.05 20.8043 20.521 20.413 20.913C20.0217 21.305 19.5507 21.5007 19 21.5H13ZM11.175 13.5H4C3.71667 13.5 3.47934 13.404 3.288 13.212C3.09667 13.02 3.00067 12.7827 3 12.5C2.99934 12.2173 3.09534 11.98 3.288 11.788C3.48067 11.596 3.718 11.5 4 11.5H11.175L9.3 9.625C9.11667 9.44167 9.025 9.21667 9.025 8.95C9.025 8.68333 9.11667 8.45 9.3 8.25C9.48334 8.05 9.71667 7.94567 10 7.937C10.2833 7.92833 10.525 8.02433 10.725 8.225L14.3 11.8C14.5 12 14.6 12.2333 14.6 12.5C14.6 12.7667 14.5 13 14.3 13.2L10.725 16.775C10.525 16.975 10.2877 17.071 10.013 17.063C9.73834 17.055 9.50067 16.9507 9.3 16.75C9.11667 16.55 9.02934 16.3127 9.038 16.038C9.04667 15.7633 9.14234 15.534 9.325 15.35L11.175 13.5Z" fill="current"/>
</svg>
