<svg width="31" height="31" viewBox="0 0 31 31" fill="none" xmlns="http://www.w3.org/2000/svg">
<path fill-rule="evenodd" clip-rule="evenodd" d="M13.4583 3C11.7641 3.00014 10.0944 3.40546 8.58865 4.18212C7.08289 4.95878 5.78469 6.08427 4.80237 7.46469C3.82005 8.84511 3.18209 10.4404 2.94171 12.1176C2.70133 13.7947 2.86551 15.505 3.42055 17.1057C3.97558 18.7065 4.90538 20.1513 6.13237 21.3197C7.35936 22.488 8.84796 23.346 10.474 23.822C12.1 24.298 13.8163 24.3783 15.4796 24.0561C17.1429 23.734 18.7051 23.0187 20.0358 21.97L24.6008 26.535C24.8366 26.7627 25.1523 26.8887 25.4801 26.8858C25.8078 26.883 26.1213 26.7515 26.3531 26.5198C26.5849 26.288 26.7163 25.9745 26.7192 25.6468C26.722 25.319 26.596 25.0033 26.3683 24.7675L21.8033 20.2025C23.0383 18.6358 23.8073 16.753 24.0222 14.7697C24.2371 12.7863 23.8893 10.7825 23.0186 8.98762C22.1479 7.19271 20.7894 5.6792 19.0987 4.62029C17.408 3.56138 15.4533 2.99987 13.4583 3ZM5.33333 13.625C5.33333 11.4701 6.18935 9.40349 7.71308 7.87976C9.23682 6.35602 11.3034 5.5 13.4583 5.5C15.6132 5.5 17.6798 6.35602 19.2036 7.87976C20.7273 9.40349 21.5833 11.4701 21.5833 13.625C21.5833 15.7799 20.7273 17.8465 19.2036 19.3702C17.6798 20.894 15.6132 21.75 13.4583 21.75C11.3034 21.75 9.23682 20.894 7.71308 19.3702C6.18935 17.8465 5.33333 15.7799 5.33333 13.625Z" fill="current"/>
</svg>
