<svg width="24" height="25" viewBox="0 0 24 25" fill="none" xmlns="http://www.w3.org/2000/svg">
<path d="M19.25 2.25V8.25M16.25 5.25H22.25M10.436 14.064C11.4722 14.064 12.466 13.6524 13.1987 12.9197C13.9314 12.187 14.343 11.1932 14.343 10.157C14.343 9.1208 13.9314 8.12704 13.1987 7.39433C12.466 6.66163 11.4722 6.25 10.436 6.25C9.3998 6.25 8.40604 6.66163 7.67333 7.39433C6.94063 8.12704 6.529 9.1208 6.529 10.157C6.529 11.1932 6.94063 12.187 7.67333 12.9197C8.40604 13.6524 9.3998 14.064 10.436 14.064ZM10.436 14.064C12.2091 14.0643 13.9094 14.7688 15.1631 16.0226C16.4167 17.2765 17.121 18.9769 17.121 20.75M10.436 14.064C8.66276 14.064 6.96215 14.7684 5.70828 16.0223C4.45442 17.2762 3.75 18.9768 3.75 20.75" stroke="current" stroke-width="2" stroke-linecap="round" stroke-linejoin="round"/>
</svg>
